<?xml version="1.0" standalone="no"?>
<!DOCTYPE svg PUBLIC "-//W3C//DTD SVG 20010904//EN"
 "http://www.w3.org/TR/2001/REC-SVG-20010904/DTD/svg10.dtd">
<svg version="1.0" xmlns="http://www.w3.org/2000/svg"
 width="381.000000pt" height="172.000000pt" viewBox="0 0 381.000000 172.000000"
 preserveAspectRatio="xMidYMid meet">

<g transform="translate(0.000000,172.000000) scale(0.100000,-0.100000)"
fill="#000000" stroke="none">
<path d="M620 1224 c-8 -3 -32 -12 -52 -21 -33 -14 -38 -14 -59 1 -30 21 -64
20 -100 -1 -27 -16 -29 -16 -48 1 -28 25 -34 4 -8 -32 26 -37 31 -38 64 -12
27 21 78 27 88 10 3 -6 -23 -39 -59 -74 -57 -55 -66 -69 -66 -99 0 -38 36 -77
71 -77 10 0 51 29 92 65 41 36 81 65 88 65 21 0 249 -219 249 -239 0 -21 -19
-41 -38 -41 -7 0 -33 16 -56 35 -75 61 -78 40 -5 -39 51 -56 58 -80 28 -99
-13 -8 -29 0 -75 37 -32 27 -60 43 -62 37 -2 -6 15 -33 37 -60 43 -51 45 -75
10 -86 -13 -5 -31 3 -55 24 -55 49 -71 41 -29 -15 14 -18 25 -42 25 -53 0 -30
-37 -37 -71 -12 -39 29 -49 7 -13 -30 15 -16 37 -29 49 -29 28 0 64 27 75 56
6 14 18 24 28 24 20 0 52 29 52 47 0 6 14 14 30 18 40 9 64 46 57 88 -4 25 -1
36 13 44 26 17 34 61 16 88 -14 21 -13 24 10 44 42 37 24 65 -20 30 -31 -25
-27 -27 -125 74 -113 118 -138 120 -237 26 -49 -48 -67 -59 -83 -54 -40 12
-24 47 58 130 44 44 92 85 108 92 15 7 65 12 111 13 83 0 109 12 51 24 -36 7
-127 7 -149 0z"/>
<path d="M1030 855 c0 -243 4 -375 10 -375 6 0 10 132 10 375 0 243 -4 375
-10 375 -6 0 -10 -132 -10 -375z"/>
<path d="M1890 945 c0 -98 1 -105 20 -105 19 0 20 7 20 105 0 98 -1 105 -20
105 -19 0 -20 -7 -20 -105z"/>
<path d="M3570 945 l0 -105 25 0 c20 0 25 5 25 24 0 38 18 40 46 7 16 -19 35
-31 51 -31 24 0 24 0 -11 43 l-36 44 30 28 c52 50 14 56 -45 7 l-30 -25 -3 56
c-3 53 -5 57 -27 57 -25 0 -25 0 -25 -105z"/>
<path d="M1160 940 l0 -100 75 0 c59 0 75 3 75 14 0 11 -15 16 -52 18 l-53 3
-3 83 c-3 74 -5 82 -22 82 -19 0 -20 -7 -20 -100z"/>
<path d="M2050 1025 c0 -10 10 -15 30 -15 l30 0 0 -85 c0 -84 0 -85 25 -85 25
0 25 1 25 85 l0 85 30 0 c20 0 30 5 30 15 0 12 -16 15 -85 15 -69 0 -85 -3
-85 -15z"/>
<path d="M2960 940 l0 -100 68 0 c76 0 112 17 112 54 0 13 -7 29 -15 36 -11 9
-13 16 -5 24 17 17 12 64 -9 76 -11 5 -49 10 -85 10 l-66 0 0 -100z m125 45
c0 -16 -8 -21 -42 -23 -40 -3 -43 -2 -43 23 0 25 3 26 43 23 34 -2 42 -7 42
-23z m-1 -61 c9 -3 16 -14 16 -24 0 -21 -19 -30 -66 -30 -29 0 -34 3 -34 23 0
13 3 27 7 30 8 9 56 9 77 1z"/>
<path d="M2750 1010 c0 -11 -7 -20 -15 -20 -8 0 -15 -7 -15 -15 0 -8 7 -15 15
-15 11 0 15 -12 15 -48 0 -26 5 -53 12 -60 18 -18 68 -15 68 3 0 8 -9 15 -20
15 -17 0 -20 7 -20 45 0 38 3 45 20 45 11 0 20 7 20 15 0 8 -9 15 -20 15 -13
0 -20 7 -20 20 0 13 -7 20 -20 20 -13 0 -20 -7 -20 -20z"/>
<path d="M1385 993 c-35 -9 -55 -34 -55 -72 0 -42 7 -54 37 -70 50 -26 103 -7
122 42 23 60 -35 116 -104 100z m61 -60 c4 -14 2 -33 -3 -42 -22 -35 -73 -19
-73 23 0 50 65 66 76 19z"/>
<path d="M1583 993 c-29 -6 -63 -49 -63 -80 0 -57 88 -95 136 -58 16 12 17 16
5 24 -10 6 -22 6 -33 0 -41 -22 -81 19 -58 61 11 21 49 27 66 10 5 -5 15 -6
24 0 31 19 -29 52 -77 43z"/>
<path d="M1745 993 c-27 -6 -39 -19 -31 -32 5 -8 13 -8 27 -1 13 8 25 7 39 0
30 -16 24 -25 -22 -36 -48 -11 -69 -35 -52 -61 9 -14 26 -18 79 -19 l68 -2 -6
60 c-3 33 -11 66 -19 73 -16 15 -56 24 -83 18z m55 -102 c0 -20 -32 -37 -50
-26 -14 9 -13 32 3 38 28 12 47 7 47 -12z"/>
<path d="M2257 993 c-4 -3 -7 -39 -7 -80 0 -66 2 -73 19 -73 17 0 20 8 23 53
2 43 7 54 26 62 12 5 22 18 22 27 0 14 -4 16 -25 8 -15 -6 -26 -6 -30 0 -7 12
-19 13 -28 3z"/>
<path d="M2508 993 c-13 -3 -18 -17 -20 -55 -6 -94 -68 -91 -68 3 0 46 -2 49
-25 49 -22 0 -25 -4 -25 -32 0 -51 19 -106 38 -112 9 -2 41 -4 70 -4 l52 0 0
79 c0 44 -1 78 -2 78 -2 -1 -11 -3 -20 -6z"/>
<path d="M2600 987 c-50 -25 -33 -73 31 -86 41 -8 33 -26 -13 -27 -21 0 -41
-4 -45 -8 -12 -12 19 -26 58 -26 46 0 72 19 67 50 -2 19 -12 27 -43 36 -53 14
-54 39 -1 39 48 0 59 20 15 29 -41 8 -40 8 -69 -7z"/>
<path d="M3212 992 c-13 -4 -23 -10 -23 -14 1 -5 1 -12 1 -18 0 -6 9 -6 26 0
17 7 32 7 45 0 30 -17 23 -27 -23 -33 -37 -5 -68 -27 -68 -48 0 -24 34 -38 90
-37 l60 1 0 57 c0 42 -5 61 -17 73 -22 19 -61 27 -91 19z m65 -99 c7 -20 -35
-37 -54 -22 -13 12 -13 14 3 26 21 15 45 14 51 -4z"/>
<path d="M3377 993 c-4 -3 -7 -39 -7 -80 0 -66 2 -73 20 -73 17 0 20 7 20 48
0 51 12 72 42 72 23 0 38 -30 38 -79 0 -30 4 -41 15 -41 13 0 15 12 13 67 -3
62 -5 69 -30 81 -18 8 -34 9 -52 2 -16 -6 -27 -6 -31 0 -7 12 -19 13 -28 3z"/>
<path d="M147 923 c-4 -3 0 -18 9 -31 15 -23 15 -27 -1 -54 -14 -25 -15 -34
-5 -59 7 -16 21 -34 30 -39 10 -5 21 -25 24 -44 7 -38 38 -66 72 -66 12 0 29
-11 38 -25 12 -17 25 -25 46 -25 22 0 33 -6 41 -24 10 -22 46 -46 69 -46 16 0
72 53 81 77 12 31 -6 69 -40 83 -17 7 -31 23 -37 43 -7 24 -17 34 -41 42 -21
6 -33 16 -33 26 0 19 -45 59 -66 59 -8 0 -14 8 -14 18 0 33 -35 55 -78 50 -24
-4 -45 0 -57 8 -21 16 -29 17 -38 7z m137 -59 c22 -22 21 -25 -23 -68 l-39
-38 -21 21 c-25 25 -18 46 25 80 32 25 38 26 58 5z m80 -80 c22 -22 21 -24
-28 -72 -46 -45 -70 -50 -90 -20 -9 15 -3 25 34 63 48 49 60 53 84 29z m84
-90 c3 -23 -47 -84 -70 -84 -17 0 -38 20 -38 36 0 7 12 27 26 44 32 37 77 39
82 4z m74 -80 c11 -24 9 -29 -15 -50 -23 -19 -32 -22 -48 -13 -31 16 -34 38
-9 65 30 31 57 31 72 -2z"/>
<path d="M1481 705 c0 -35 2 -45 9 -35 7 12 12 12 22 2 19 -19 29 -14 16 8
-11 17 -10 22 2 30 8 5 10 10 4 10 -6 0 -18 -7 -25 -17 -13 -15 -15 -13 -20
18 -6 30 -6 28 -8 -16z"/>
<path d="M1900 735 c0 -8 -6 -15 -12 -15 -10 0 -10 -2 -2 -8 7 -4 14 -18 17
-32 4 -25 4 -25 6 3 0 15 7 27 14 27 8 0 7 4 -3 10 -13 9 -13 11 0 20 13 8 12
10 -2 10 -10 0 -18 -7 -18 -15z"/>
<path d="M1160 700 c0 -22 3 -40 8 -40 4 0 7 18 7 40 0 22 -3 40 -7 40 -5 0
-8 -18 -8 -40z"/>
<path d="M1216 713 c3 -54 4 -57 13 -47 10 10 3 74 -8 74 -4 0 -6 -12 -5 -27z"/>
<path d="M2011 698 c2 -30 3 -35 6 -15 5 34 16 34 37 2 24 -37 36 -31 35 18
-2 29 -3 34 -6 15 -5 -35 -18 -35 -39 -3 -24 36 -34 31 -33 -17z"/>
<path d="M2227 722 c-2 -4 0 -20 4 -37 7 -30 7 -30 8 -3 0 14 6 28 13 30 8 3
6 7 -5 11 -9 3 -18 3 -20 -1z"/>
<path d="M1299 713 c18 -4 22 -10 18 -29 -2 -13 0 -24 5 -24 5 0 8 12 6 28 -2
21 -9 27 -28 29 -24 1 -24 1 -1 -4z"/>
<path d="M1371 688 c1 -30 2 -31 8 -8 4 16 14 25 26 25 12 0 22 -9 26 -25 4
-14 7 -18 8 -8 2 32 -11 48 -40 48 -26 0 -29 -3 -28 -32z"/>
<path d="M1577 714 c-10 -10 -9 -42 2 -48 5 -4 7 3 4 14 -6 24 24 40 39 19 8
-12 9 -11 5 1 -4 16 -38 25 -50 14z"/>
<path d="M1671 688 c0 -32 1 -32 10 -8 6 13 15 28 22 32 8 5 4 8 -10 8 -19 0
-23 -5 -22 -32z"/>
<path d="M1797 713 c-10 -9 -8 -41 2 -47 5 -4 7 3 4 14 -6 23 22 39 39 22 8
-8 8 -15 -2 -27 -8 -9 -8 -15 -2 -15 16 0 24 18 17 40 -6 19 -44 28 -58 13z"/>
<path d="M2148 713 c15 -3 22 -11 22 -29 0 -13 5 -24 10 -24 11 0 13 20 4 44
-4 10 -17 15 -33 15 -23 -2 -24 -2 -3 -6z"/>
<path d="M2302 690 c0 -19 2 -27 5 -17 2 9 2 25 0 35 -3 9 -5 1 -5 -18z"/>
<path d="M2351 706 c-6 -7 -9 -21 -5 -30 10 -25 22 -19 16 9 -3 21 0 25 18 25
18 0 21 -4 18 -25 -5 -25 7 -35 15 -12 13 35 -37 63 -62 33z"/>
<path d="M2451 688 c1 -30 2 -31 8 -8 10 36 39 38 44 3 4 -27 4 -27 6 5 1 29
-2 32 -29 32 -27 0 -30 -3 -29 -32z"/>
<path d="M1277 683 c-10 -9 -9 -23 1 -23 5 0 9 7 9 15 0 17 -1 18 -10 8z"/>
<path d="M2130 675 c0 -8 2 -15 4 -15 2 0 6 7 10 15 3 8 1 15 -4 15 -6 0 -10
-7 -10 -15z"/>
</g>
</svg>
